<svg xmlns="http://www.w3.org/2000/svg" width="100" height="100"><path fill="#fed5b3" d="M71 82H29c-6.075 0-11-4.925-11-11V29c0-6.075 4.925-11 11-11h42c6.075 0 11 4.925 11 11v42c0 6.075-4.925 11-11 11z"/><path fill="#d68f53" d="M18 39V29c0-6.075 4.925-11 11-11h42c6.075 0 11 4.925 11 11v10H18z"/><path fill="#f15b6c" d="M26 38h-4V20l4-1z"/><path fill="#f9e65c" d="M25 38h4V18l-4 1z"/><path fill="#a1d3a2" d="M28 18h4v20h-4z"/><path fill="#39c2d8" d="M31 18h4v20h-4z"/><path fill="#b77748" d="M66.5 24.5h8v8h-8z"/><path fill="#fefdef" d="M50 34a16 16 0 1 0 0 32 16 16 0 1 0 0-32z"/><path fill="#8f9eb6" d="M50 39a11 11 0 1 0 0 22 11 11 0 1 0 0-22z"/><path fill="#78cdd4" d="M45.036 41.072a3.964 3.964 0 1 0 0 7.928 3.964 3.964 0 1 0 0-7.928z"/><path fill="#b77748" d="M32.5 36.5h-8a2 2 0 1 0 0 4h8a2 2 0 1 0 0-4z"/><path fill="#1f212b" d="M49.964 65.928a16.03 16.03 0 0 1-7.341-1.783A15.927 15.927 0 0 1 34 49.964C34 41.161 41.161 34 49.964 34s15.964 7.161 15.964 15.964-7.161 15.964-15.964 15.964zm0-30.928C41.713 35 35 41.713 35 49.964a14.926 14.926 0 0 0 8.084 13.292 14.806 14.806 0 0 0 6.88 1.672c8.251 0 14.964-6.713 14.964-14.964S58.215 35 49.964 35z"/><path fill="#1f212b" d="M67.5 39h-7a.5.5 0 0 1 0-1h7a.5.5 0 0 1 0 1zm-28 0h-5a.5.5 0 0 1 0-1h5a.5.5 0 0 1 0 1zm-17 0h-4a.5.5 0 0 1 0-1h4a.5.5 0 0 1 0 1zm59 0h-11a.5.5 0 0 1 0-1h11a.5.5 0 0 1 0 1z"/><path fill="#1f212b" d="M71 83H29c-6.617 0-12-5.383-12-12V29c0-6.617 5.383-12 12-12h42c6.617 0 12 5.383 12 12v42c0 6.617-5.383 12-12 12zM29 19c-5.514 0-10 4.486-10 10v42c0 5.514 4.486 10 10 10h42c5.514 0 10-4.486 10-10V29c0-5.514-4.486-10-10-10H29z"/><path fill="#1f212b" d="M50 61c-6.065 0-11-4.935-11-11s4.935-11 11-11a11.02 11.02 0 0 1 10.368 7.319.5.5 0 1 1-.943.334A10.016 10.016 0 0 0 50 40c-5.514 0-10 4.486-10 10s4.486 10 10 10a.5.5 0 0 1 0 1zm10.488-10.999a.5.5 0 0 1-.499-.477 10.305 10.305 0 0 0-.091-.954.5.5 0 1 1 .99-.14c.049.345.083.694.099 1.048.014.276-.2.51-.476.522l-.023.001z"/><path fill="#1f212b" d="M45.036 49a3.957 3.957 0 0 1-3.964-3.963c0-2.186 1.778-3.964 3.964-3.964S49 42.851 49 45.036 47.222 49 45.036 49zm0-6.928a2.967 2.967 0 0 0-1.362 5.598A2.967 2.967 0 0 0 48 45.036a2.967 2.967 0 0 0-2.964-2.964zM74.5 33h-8a.5.5 0 0 1-.5-.5v-8a.5.5 0 0 1 .5-.5h8a.5.5 0 0 1 .5.5v8a.5.5 0 0 1-.5.5zM67 32h7v-7h-7v7zm-44.5 2a.5.5 0 0 1-.5-.5v-13a.5.5 0 0 1 1 0v13a.5.5 0 0 1-.5.5zm9 3a.5.5 0 0 1-.5-.5v-15a.5.5 0 0 1 1 0v15a.5.5 0 0 1-.5.5zm3 2a.5.5 0 0 1-.5-.5v-4a.5.5 0 0 1 1 0v4a.5.5 0 0 1-.5.5zm0-7a.5.5 0 0 1-.5-.5v-2a.5.5 0 0 1 1 0v2a.5.5 0 0 1-.5.5zm0-5a.5.5 0 0 1-.5-.5v-8a.5.5 0 0 1 1 0v8a.5.5 0 0 1-.5.5zm-6-1a.5.5 0 0 1-.5-.5v-7a.5.5 0 0 1 1 0v7a.5.5 0 0 1-.5.5zm0 11a.5.5 0 0 1-.5-.5v-8a.5.5 0 0 1 1 0v8a.5.5 0 0 1-.5.5zm-3 0a.5.5 0 0 1-.5-.5v-2a.5.5 0 0 1 1 0v2a.5.5 0 0 1-.5.5zm0-5a.5.5 0 0 1-.5-.5v-13a.5.5 0 0 1 1 0v13a.5.5 0 0 1-.5.5z"/><path fill="#1f212b" d="M32.5 41h-8c-1.379 0-2.5-1.121-2.5-2.5s1.121-2.5 2.5-2.5h8c1.379 0 2.5 1.121 2.5 2.5S33.879 41 32.5 41zm-8-4c-.827 0-1.5.673-1.5 1.5s.673 1.5 1.5 1.5h8c.827 0 1.5-.673 1.5-1.5s-.673-1.5-1.5-1.5h-8z"/></svg>