<svg xmlns="http://www.w3.org/2000/svg" width="64pt" height="64pt" viewBox="0 0 64 64"><path d="M50.86 5.86l6.808 6.808a3.999 3.999 0 0 1 0 5.656l-3.664 3.664L41.539 9.523 45.2 5.86a4.003 4.003 0 0 1 5.66 0zm0 0" fill="#ed7899"/><path d="M39.125 8.879l16 16-6.617 6.621-16.004-16.004zm0 0" fill="#c2cde7"/><path d="M34.125 16.875l13 12.996L18.5 58.496 5.504 45.5zm0 0" fill="#f9e3ae"/><path d="M42.625 25.375l4.5 4.496L18.5 58.496 14.004 54zm0 0" fill="#f6d397"/><path d="M5 57l1-11 7 1 1 3 2.922 1.5L19 59H7zm0 0" fill="#faefde"/><path d="M34.125 16.875l4.5 4.496L10 49.996l-4.496-4.5zm0 0" fill="#faefde"/><path d="M60.59 15.898a4 4 0 0 0-1.168-2.828L50.93 4.59a4.091 4.091 0 0 0-5.66 0L41 8.828a1.999 1.999 0 0 0-2.828 0l-5.66 5.66a1.995 1.995 0 0 0 0 2.832l.047.051-27.04 27.027a3.013 3.013 0 0 0-.87 1.883L4 54.68l-.7 4.922a.992.992 0 0 0 .24.796.994.994 0 0 0 .76.34h.098L9.32 60l8.45-.621c.718-.05 1.39-.36 1.902-.867l27.078-27a2 2 0 0 0 2.77 0l5.66-5.66a2.008 2.008 0 0 0 0-2.832l4.242-4.239a4.006 4.006 0 0 0 1.168-2.883zm-48.692 32l.582 2.883c.079.39.387.7.782.778l2.879.582 1.07 5.34L9.59 58 6 54.41l.61-7.601zM19 56.352l-1-4.774L34.672 35a1 1 0 0 0-1.41-1.41L16.66 50.172l-2.36-.473-.472-2.36L27.59 33.58a1 1 0 0 0-1.41-1.407L12.422 45.93 7.75 45 34 18.781 45.32 30.09zM52.34 25.8a1.002 1.002 0 0 0-1.41 0l-1.41 1.41a1.002 1.002 0 0 0 0 1.41L48.102 30 34 15.898l1.41-1.41c.39.39 1.02.39 1.41 0l1.41-1.41a.997.997 0 0 0 0-1.406l1.41-1.41.712.707 12.699 12.71.71.712zM58 17.309l-4.238 4.242-11.32-11.313L46.691 6a1.999 1.999 0 0 1 2.828 0L58 14.488a2.008 2.008 0 0 1 0 2.832zm0 0" fill="#8d6c9f"/><path d="M40.32 15.191l-1.41 1.41a.996.996 0 0 0 .406 1.754A.999.999 0 0 0 40.32 18l1.41-1.41a.995.995 0 0 0-.054-1.356.996.996 0 0 0-1.356-.054zm3.54 3.54l-1.41 1.41a.993.993 0 0 0-.321.992.988.988 0 0 0 .738.738c.363.09.75-.035.992-.32l1.41-1.41c.34-.399.317-.989-.05-1.36a1.004 1.004 0 0 0-1.36-.05zm3.53 3.53L46 23.68a.996.996 0 0 0-.32.992.988.988 0 0 0 .738.738.996.996 0 0 0 .992-.32l1.41-1.41a.996.996 0 0 0-.054-1.356.995.995 0 0 0-1.356-.054zm-15.55 4.25L29 29.329a1 1 0 0 0-.32.996 1 1 0 0 0 .738.738c.363.086.746-.039.992-.324l2.828-2.828a1 1 0 0 0-1.41-1.41zm0 0" fill="#8d6c9f"/><path d="M63 51c0 6.629-5.371 12-12 12s-12-5.371-12-12 5.371-12 12-12 12 5.371 12 12zm0 0" fill="#72caaf"/><path d="M57 50h-5v-5c0-.55-.45-1-1-1s-1 .45-1 1v5h-5c-.55 0-1 .45-1 1s.45 1 1 1h5v5c0 .55.45 1 1 1s1-.45 1-1v-5h5c.55 0 1-.45 1-1s-.45-1-1-1zm0 0" fill="#f9efde"/><path d="M51 64c-7.168 0-13-5.832-13-13s5.832-13 13-13 13 5.832 13 13-5.832 13-13 13zm0-24c-6.066 0-11 4.934-11 11s4.934 11 11 11 11-4.934 11-11-4.934-11-11-11zm0 0" fill="#8d6c9f"/></svg>